<svg width="70" height="70" viewBox="0 0 70 70" fill="none" xmlns="http://www.w3.org/2000/svg">
<g clip-path="url(#clip0_1387_491)">
<path d="M35 6.30273C44.3516 6.30273 45.459 6.34375 49.1367 6.50781C52.5547 6.6582 54.4004 7.23242 55.6309 7.71094C57.2578 8.33984 58.4336 9.10547 59.6504 10.3223C60.8809 11.5527 61.6328 12.7148 62.2617 14.3418C62.7402 15.5723 63.3145 17.4316 63.4649 20.8359C63.6289 24.5273 63.6699 25.6348 63.6699 34.9727C63.6699 44.3242 63.6289 45.4316 63.4649 49.1094C63.3145 52.5274 62.7402 54.3731 62.2617 55.6035C61.6328 57.2305 60.8672 58.4063 59.6504 59.6231C58.4199 60.8535 57.2578 61.6055 55.6309 62.2344C54.4004 62.7129 52.541 63.2871 49.1367 63.4375C45.4453 63.6016 44.3379 63.6426 35 63.6426C25.6484 63.6426 24.541 63.6016 20.8633 63.4375C17.4453 63.2871 15.5996 62.7129 14.3691 62.2344C12.7422 61.6055 11.5664 60.8398 10.3496 59.6231C9.11914 58.3926 8.36719 57.2305 7.73828 55.6035C7.25977 54.3731 6.68555 52.5137 6.53516 49.1094C6.37109 45.418 6.33008 44.3106 6.33008 34.9727C6.33008 25.6211 6.37109 24.5137 6.53516 20.8359C6.68555 17.418 7.25977 15.5723 7.73828 14.3418C8.36719 12.7148 9.13281 11.5391 10.3496 10.3223C11.5801 9.0918 12.7422 8.33984 14.3691 7.71094C15.5996 7.23242 17.459 6.6582 20.8633 6.50781C24.541 6.34375 25.6484 6.30273 35 6.30273ZM35 0C25.498 0 24.3086 0.0410156 20.5762 0.205078C16.8574 0.369141 14.3008 0.970703 12.0859 1.83203C9.77539 2.73438 7.82031 3.92383 5.87891 5.87891C3.92383 7.82031 2.73438 9.77539 1.83203 12.0723C0.970703 14.3008 0.369141 16.8438 0.205078 20.5625C0.0410156 24.3086 0 25.498 0 35C0 44.502 0.0410156 45.6914 0.205078 49.4238C0.369141 53.1426 0.970703 55.6992 1.83203 57.9141C2.73438 60.2246 3.92383 62.1797 5.87891 64.1211C7.82031 66.0625 9.77539 67.2656 12.0723 68.1543C14.3008 69.0156 16.8438 69.6172 20.5625 69.7812C24.2949 69.9453 25.4844 69.9863 34.9863 69.9863C44.4883 69.9863 45.6777 69.9453 49.4102 69.7812C53.1289 69.6172 55.6856 69.0156 57.9004 68.1543C60.1973 67.2656 62.1523 66.0625 64.0938 64.1211C66.0352 62.1797 67.2383 60.2246 68.127 57.9277C68.9883 55.6992 69.5899 53.1563 69.7539 49.4375C69.918 45.7051 69.959 44.5156 69.959 35.0137C69.959 25.5117 69.918 24.3223 69.7539 20.5898C69.5899 16.8711 68.9883 14.3145 68.127 12.0996C67.2656 9.77539 66.0762 7.82031 64.1211 5.87891C62.1797 3.9375 60.2246 2.73438 57.9277 1.8457C55.6992 0.984375 53.1563 0.382813 49.4375 0.21875C45.6914 0.0410156 44.502 0 35 0Z" fill="white"/>
<path d="M35 17.0215C25.0742 17.0215 17.0215 25.0742 17.0215 35C17.0215 44.9258 25.0742 52.9785 35 52.9785C44.9258 52.9785 52.9785 44.9258 52.9785 35C52.9785 25.0742 44.9258 17.0215 35 17.0215ZM35 46.6621C28.5605 46.6621 23.3379 41.4395 23.3379 35C23.3379 28.5605 28.5605 23.3379 35 23.3379C41.4395 23.3379 46.6621 28.5605 46.6621 35C46.6621 41.4395 41.4395 46.6621 35 46.6621Z" fill="white"/>
<path d="M57.8867 16.3115C57.8867 18.6358 56 20.5088 53.6895 20.5088C51.3652 20.5088 49.4922 18.6221 49.4922 16.3115C49.4922 13.9873 51.3789 12.1143 53.6895 12.1143C56 12.1143 57.8867 14.001 57.8867 16.3115Z" fill="white"/>
</g>
<defs>
<clipPath id="clip0_1387_491">
<rect width="70" height="70" fill="white"/>
</clipPath>
</defs>
</svg>
