<svg width="70" height="70" viewBox="0 0 70 70" fill="none" xmlns="http://www.w3.org/2000/svg">
<path d="M22.0213 63.4386C48.4299 63.4386 62.8783 41.5541 62.8783 22.5816C62.8783 21.9664 62.8646 21.3374 62.8373 20.7222C65.648 18.6896 68.0735 16.1719 70 13.2874C67.3824 14.4521 64.6031 15.2127 61.7572 15.5433C64.7537 13.7471 66.9974 10.9255 68.0723 7.60131C65.2533 9.27195 62.1704 10.4504 58.9559 11.0863C56.7899 8.78488 53.9262 7.26108 50.8074 6.75048C47.6886 6.23987 44.4885 6.77089 41.7017 8.26144C38.915 9.75199 36.6969 12.1191 35.3904 14.9967C34.0839 17.8743 33.7617 21.1021 34.4736 24.1812C28.7656 23.8948 23.1815 22.412 18.0833 19.8289C12.9851 17.2459 8.4866 13.6204 4.87949 9.18725C3.04617 12.3481 2.48517 16.0885 3.31051 19.6481C4.13585 23.2077 6.2856 26.3195 9.32285 28.3511C7.04267 28.2787 4.81243 27.6648 2.81641 26.5601V26.7378C2.81436 30.0549 3.96112 33.2704 6.06174 35.8376C8.16236 38.4048 11.0872 40.1653 14.3391 40.8199C12.2268 41.3978 10.0099 41.482 7.85996 41.066C8.77758 43.9187 10.5629 46.4138 12.9668 48.203C15.3707 49.9922 18.2733 50.9862 21.2693 51.0464C16.1829 55.0419 9.89968 57.209 3.43164 57.1988C2.28459 57.197 1.13866 57.1267 0 56.9882C6.57083 61.2038 14.2145 63.4427 22.0213 63.4386Z" fill="white"/>
</svg>
