<svg width="70" height="70" viewBox="0 0 70 70" fill="none" xmlns="http://www.w3.org/2000/svg">
<path d="M0 70L4.9439 52.0246C1.89316 46.7629 0.290128 40.7983 0.293059 34.6821C0.30185 15.5604 15.9365 0 35.1465 0C44.4687 0.00291667 53.2195 3.61667 59.8016 10.1733C66.3807 16.73 70.0029 25.445 70 34.7142C69.9912 53.8388 54.3565 69.3992 35.1465 69.3992C29.3147 69.3963 23.5678 67.9408 18.4774 65.1758L0 70ZM19.3331 58.8963C24.2447 61.7983 28.9337 63.5367 35.1348 63.5396C51.1006 63.5396 64.1066 50.6071 64.1154 34.7083C64.1212 18.7775 51.1768 5.8625 35.1582 5.85667C19.1807 5.85667 6.18354 18.7892 6.17768 34.685C6.17475 41.1746 8.08549 46.0337 11.2945 51.1175L8.36683 61.7575L19.3331 58.8963ZM52.7037 42.9596C52.4868 42.5979 51.9066 42.3821 51.0332 41.9475C50.1629 41.5129 45.8813 39.4158 45.0812 39.1271C44.2841 38.8383 43.7038 38.6925 43.1207 39.5617C42.5404 40.4279 40.87 42.3821 40.363 42.9596C39.856 43.5371 39.3461 43.61 38.4757 43.1754C37.6053 42.7408 34.7978 41.8279 31.4716 38.8733C28.8839 36.575 27.1343 33.7371 26.6273 32.8679C26.1203 32.0017 26.5746 31.5321 27.0083 31.1004C27.401 30.7125 27.8787 30.0883 28.3153 29.5808C28.7578 29.0792 28.9014 28.7175 29.1945 28.1371C29.4846 27.5596 29.341 27.0521 29.1212 26.6175C28.9014 26.1858 27.1607 21.9188 26.4368 20.1833C25.7276 18.4946 25.0096 18.7221 24.4763 18.6958L22.8058 18.6667C22.2256 18.6667 21.2819 18.8825 20.4848 19.7517C19.6877 20.6208 17.437 22.715 17.437 26.9821C17.437 31.2492 20.5581 35.3704 20.9918 35.9479C21.4284 36.5254 27.1314 45.2813 35.8675 49.035C37.9452 49.9275 39.5688 50.4613 40.8319 50.8608C42.9184 51.52 44.8175 51.4267 46.3179 51.205C47.9913 50.9571 51.4699 49.1079 52.1967 47.0838C52.9235 45.0567 52.9235 43.3213 52.7037 42.9596Z" fill="white"/>
</svg>
